# xmcd
#
# Track frame offsets:
#	150
#	17053
#	32998
#	55495
#	70013
#	86465
#	101805
#	117523
#
# Disc length: 1762
#
# Revision: 3
# Processed by: cddbd v1.5.1PL0 Copyright (c) Steve Scherf et al.
# Submitted via: CDWizzard Release:4.35
# Normalized: r1:TSWAP
#
DISCID=6a06e008
DTITLE=Various Artist - Wherehouse Country Music Sampler
DYEAR=1900
DGENRE=
TTITLE0=Blackhawk - Down In Flames
TTITLE1=Alan Jackson - Tonight I Climbed The Wall
TTITLE2=Pam Tillis - Homeward Looking Angel
TTITLE3=BR5-49 - Even If It's Wrong
TTITLE4=Brooks and Dunn - That Ain't No Way To Go
TTITLE5=Tammy Graham - Tell Me Again
TTITLE6=Lee Roy Parnell - If The House Is Rockin'
TTITLE7=Diamond Rio - Oh Me, Oh My, Sweet Baby
EXTD=
EXTT0=
EXTT1=
EXTT2=
EXTT3=
EXTT4=
EXTT5=
EXTT6=
EXTT7=
PLAYORDER=
